Coordinates
version=1
nRows=4
nColumns=63
inDegrees=yes

Units are S.I. units (second, meters, Newtons, ...)
If the header above contains a line with 'inDegrees', this indicates whether rotational values are in degrees (yes) or radians (no).

endheader
time	pelvis_tilt	pelvis_list	pelvis_rotation	pelvis_tx	pelvis_ty	pelvis_tz	hip_flexion_r	hip_adduction_r	hip_rotation_r	knee_angle_r	knee_angle_r_beta	ankle_angle_r	subtalar_angle_r	mtp_angle_r	hip_flexion_l	hip_adduction_l	hip_rotation_l	knee_angle_l	knee_angle_l_beta	ankle_angle_l	subtalar_angle_l	mtp_angle_l	L5_S1_Flex_Ext	L5_S1_Lat_Bending	L5_S1_axial_rotation	L4_L5_Flex_Ext	L4_L5_Lat_Bending	L4_L5_axial_rotation	L3_L4_Flex_Ext	L3_L4_Lat_Bending	L3_L4_axial_rotation	L2_L3_Flex_Ext	L2_L3_Lat_Bending	L2_L3_axial_rotation	L1_L2_Flex_Ext	L1_L2_Lat_Bending	L1_L2_axial_rotation	L1_T12_Flex_Ext	L1_T12_Lat_Bending	L1_T12_axial_rotation	Abs_r3	Abs_r2	Abs_r1	Abs_t1	Abs_t2	neck_flexion	neck_bending	neck_rotation	arm_flex_r	arm_add_r	arm_rot_r	elbow_flex_r	pro_sup_r	wrist_flex_r	wrist_dev_r	arm_flex_l	arm_add_l	arm_rot_l	elbow_flex_l	pro_sup_l	wrist_flex_l	wrist_dev_l
      2.75000000	     -4.76783843	     -4.48654585	     66.56532342	      0.26713129	      0.39708602	      0.93901273	      1.55089224	      0.35012775	     15.76047315	      4.25654590	      0.07429074	     27.28838212	     -9.60441064	      0.00000000	      3.82680765	     -0.83622381	    -16.14390223	     10.70432681	      0.18682575	     34.32157157	      4.90554653	      0.00000000	     -0.14876672	     -0.48461278	      2.54076331	     -0.27627468	     -0.64453499	      2.69956101	     -0.24440884	     -1.17828750	      2.69956101	     -0.17002548	     -1.17828750	      2.22316789	     -0.13814478	     -0.98822237	      2.06437019	     -0.08500530	     -0.75066519	      1.90557248	     -1.06262580	     -5.48203664	     14.13096328	      0.00000000	      0.00000000	     16.55478807	     11.12652123	    -12.08065166	    101.91300036	   -107.43588127	    113.30383806	     11.50951768	      7.53435651	     -7.23389742	      7.86590734	   -136.61916442	    -83.72148850	    -30.55331570	      3.30935688	     63.60525104	    -13.14139344	      6.71798421
      2.76666667	     -4.77352266	     -4.48261107	     66.40852781	      0.26780991	      0.39704992	      0.93896800	      1.56565371	      0.36405596	     15.99032250	      4.23121681	      0.07384866	     27.38481344	     -9.47021024	      0.00000000	      3.79707446	     -0.91459061	    -16.74856154	     10.73031942	      0.18727940	     34.50946136	      5.90195114	      0.00000000	     -0.14859461	     -0.48357871	      2.59337914	     -0.27595504	     -0.64315969	      2.75546534	     -0.24412608	     -1.17577328	      2.75546534	     -0.16982878	     -1.17577328	      2.26920675	     -0.13798495	     -0.98611371	      2.10712055	     -0.08490696	     -0.74906343	      1.94503436	     -1.06139641	     -5.47033911	     14.42359676	      0.00000000	      0.00000000	     16.26233779	     11.31460242	    -11.84747646	    102.57942413	   -107.90839985	    109.18163205	     12.24363272	      8.05256873	     -7.53457200	      7.85167861	   -139.25009454	    -84.17433529	    -27.87196251	      3.08126941	     65.78996834	    -12.68153006	      8.42401410
      2.78333333	     -4.79488021	     -4.49467852	     66.36297126	      0.26846940	      0.39699734	      0.93919106	      1.61565897	      0.38959350	     16.05250884	      4.20988075	      0.07347628	     27.40153915	     -9.45734187	      0.00000000	      3.81852292	     -0.93038203	    -16.71300717	     10.72014326	      0.18710180	     34.48909233	      5.94730607	      0.00000000	     -0.15878280	     -0.48597303	      2.58591232	     -0.29487555	     -0.64634413	      2.74753183	     -0.26086427	     -1.18159483	      2.74753183	     -0.18147287	     -1.18159483	      2.26267328	     -0.14744571	     -0.99099621	      2.10105376	     -0.09072849	     -0.75277223	      1.93943424	     -1.13416969	     -5.49742412	     14.38206852	      0.00000000	      0.00000000	     16.19940075	     11.32290574	    -11.82508719	    102.54991370	   -107.80108010	    109.14910624	     12.24342643	      8.04224754	     -7.53714393	      7.82309537	   -139.27392257	    -84.15760219	    -27.86573815	      2.92118891	     65.80648198	    -12.69398800	      8.47251839
      2.80000000	     -4.68912919	     -4.39320578	     66.18872154	      0.26917311	      0.39714271	      0.93795888	      1.11486808	      0.46213743	     19.59015701	      3.57072393	      0.06232089	     26.21967878	    -13.69627226	      0.00000000	      3.50535074	     -1.18020379	    -18.91226259	     10.74793600	      0.18758687	     34.91950656	      8.90726541	      0.00000000	     -0.14401079	     -0.45496535	      2.65969148	     -0.26744244	     -0.60510392	      2.82592219	     -0.23659533	     -1.10620276	      2.82592219	     -0.16458994	     -1.10620276	      2.32723004	     -0.13372842	     -0.92776535	      2.16099932	     -0.08228777	     -0.70474133	      1.99476861	     -1.02865470	     -5.14665908	     14.79240608	      0.00000000	      0.00000000	     14.83410216	     11.40583811	    -10.71406807	    102.23876080	   -108.28015865	    104.91605885	     13.05327911	      7.65937635	     -8.76121513	      7.68579783	   -139.62029352	    -84.94793789	    -26.31093267	      2.42205929	     68.89558178	    -12.17112566	     10.34581133
